<svg xmlns="http://www.w3.org/2000/svg" fill="none" viewBox="0 0 24 24">
  <rect fill="#3b5b7d" width="24" height="24" x="0" y="0" rx="4" />
  <path fill="#f5e7d6"
    d="M16 14.75c0 .478-.063.906-.189 1.283-.126.378-.301.7-.526.967a2.832 2.832 0 0 1-.78.65 3.172 3.172 0 0 1-.953.35v-1.5c.12-.089.239-.183.354-.283.115-.1.216-.217.304-.35.087-.134.161-.29.221-.467.06-.178.09-.378.09-.6a2.05 2.05 0 0 0-.155-.825 2.123 2.123 0 0 0-.411-.625 2.346 2.346 0 0 0-.575-.442 3.302 3.302 0 0 0-.665-.275l-1.479-.416a8.9 8.9 0 0 1-1.174-.434 3.674 3.674 0 0 1-.97-.633 2.685 2.685 0 0 1-.657-.942c-.158-.372-.238-.82-.238-1.341 0-.445.063-.845.19-1.2a3.16 3.16 0 0 1 .492-.917c.203-.256.438-.461.706-.617.269-.155.545-.255.83-.3V7.5a1.44 1.44 0 0 0-.263.175 1.114 1.114 0 0 0-.238.283 1.628 1.628 0 0 0-.173.409 1.972 1.972 0 0 0-.065.533c0 .3.046.55.14.75.092.2.213.367.36.5.148.133.316.239.502.317.186.077.372.144.558.2l1.479.416c.482.134.925.298 1.33.492s.753.436 1.043.725c.29.289.515.633.674 1.033.159.4.238.873.238 1.417Zm-3.285-1.2v5.7c0 .256-.06.444-.181.567-.12.122-.307.183-.559.183-.252 0-.438-.061-.558-.183-.12-.123-.18-.311-.18-.567v-6.117l1.478.417Zm0-3.383-1.479-.417v-5c0-.256.06-.444.18-.567.121-.122.307-.183.56-.183.251 0 .437.061.558.183.12.123.18.311.18.567v5.417Zm-2.3 6.333V18a2.712 2.712 0 0 1-.87-.333 3.714 3.714 0 0 1-.773-.6 2.999 2.999 0 0 1-.558-.784A1.945 1.945 0 0 1 8 15.417c0-.29.066-.486.197-.592a.737.737 0 0 1 .477-.158c.153 0 .287.027.402.083a.469.469 0 0 1 .238.233c.055.123.12.259.197.409a3.5 3.5 0 0 0 .263.433c.099.139.203.27.312.392.11.122.22.216.329.283Zm3.137-10.667c.263.045.526.142.789.292s.5.33.714.542c.214.21.387.447.518.708.131.261.197.525.197.792 0 .289-.068.48-.205.575a.832.832 0 0 1-.485.141.801.801 0 0 1-.443-.116c-.12-.078-.225-.211-.313-.4a2.35 2.35 0 0 0-.517-.684 1.09 1.09 0 0 0-.255-.183V5.833Z" />
</svg>