<svg xmlns="http://www.w3.org/2000/svg" viewBox="0 0 217 49">
  <path fill-opacity="0" stroke="#abd5ed"
    d="M20.444 35.312q0 1.152-.558 1.71t-1.71.558q-1.116 0-1.674-.558-.558-.558-.558-1.71V17.996q0-.216-.162-.216t-.198.216l-1.908 8.496q-.18.936-.792 1.404-.612.468-1.584.468-.972 0-1.584-.468-.612-.468-.792-1.404l-1.908-8.496q-.036-.216-.198-.216t-.162.216v17.316q0 1.152-.558 1.71t-1.674.558q-1.152 0-1.71-.558t-.558-1.71V14.828q0-2.124.9-3.186.9-1.062 2.844-1.062 1.512 0 2.322.648t1.062 2.016L10.94 21.2q.072.54.36.54t.396-.54l1.62-7.956q.252-1.368 1.17-2.016.918-.648 2.358-.648 1.836 0 2.718 1.026.882 1.026.882 3.078v20.628Zm10.08 2.268q-1.296 0-2.502-.486-1.206-.486-2.124-1.53-.918-1.044-1.476-2.718-.558-1.674-.558-4.05 0-2.412.522-4.572t1.566-3.744q1.044-1.584 2.592-2.502 1.548-.918 3.6-.918 1.692 0 2.736.828.828.648 1.368 1.584.036-.144.036-.288.18-1.08.846-1.602.666-.522 1.746-.522 1.116 0 1.548.522.432.522.288 1.602-.288 1.98-.468 3.924-.18 1.944-.162 3.906.018 1.962.234 4.05.216 2.088.72 4.428.252 1.08-.09 1.584-.342.504-1.458.504-1.116 0-1.872-.504t-.972-1.584q-.216-.936-.36-1.836-.18.36-.396.72-.828 1.512-2.16 2.358-1.332.846-3.204.846Zm.9-4.392q.792 0 1.566-.414t1.368-1.26q.594-.846.954-2.106.36-1.26.36-2.952 0-.972-.09-1.89-.09-.918-.378-1.602-.288-.684-.792-1.098-.504-.414-1.332-.414-1.044 0-1.854.576t-1.404 1.584q-.594 1.008-.9 2.34-.306 1.332-.306 2.844 0 1.98.684 3.186t2.124 1.206Zm17.1-16.128q1.188 0 1.8.576.612.576.612 1.764v1.836q.288-.864.738-1.638.45-.774 1.098-1.332.648-.558 1.548-.882.9-.324 2.124-.324 2.052 0 3.402.792t2.106 2.142q.756 1.35 1.062 3.186.306 1.836.306 3.924 0 1.8-.342 3.672T61.79 34.16q-.846 1.512-2.34 2.466-1.494.954-3.834.954-1.8 0-3.096-.99t-1.584-2.682v7.776q0 1.188-.576 1.782-.576.594-1.8.594-1.224 0-1.8-.594-.576-.594-.576-1.782V19.4q0-1.188.558-1.764.558-.576 1.782-.576Zm6.588 4.392q-.828 0-1.602.342-.774.342-1.332.954-.558.612-.9 1.458-.342.846-.342 1.854v2.196q0 .936.27 1.818t.774 1.584q.504.702 1.224 1.116.72.414 1.584.414 1.224 0 1.962-.54t1.134-1.422q.396-.882.522-1.962t.126-2.124q0-1.044-.126-2.07-.126-1.026-.504-1.836t-1.062-1.296q-.684-.486-1.728-.486Zm22.356 6.552q0 2.7.648 3.942t1.908 1.242q.576 0 1.134-.09.558-.09 1.134-.342 1.044-.468 1.746-.198t1.17 1.134q.576.972.342 1.728-.234.756-1.098 1.188a7.703 7.703 0 0 1-2.484.792q-1.296.18-2.736.18-1.584 0-2.79-.522t-2.052-1.62q-.846-1.098-1.26-2.808-.414-1.71-.414-4.05V17.132q0-.972-.486-1.458t-1.458-.486h-1.548q-1.08 0-1.602-.522t-.522-1.602q0-1.08.522-1.602t1.602-.522h4.356q1.944 0 2.916.972t.972 2.916v13.176Zm25.992 3.42q.9 0 1.422.702.522.702.522 1.602 0 .504-.216.936-.216.432-.828.972-.54.468-1.188.828-.648.36-1.44.612-.792.252-1.71.378-.918.126-1.998.126-2.196 0-3.834-.774t-2.736-2.124q-1.098-1.35-1.656-3.204-.558-1.854-.558-4.014 0-1.98.468-3.87.468-1.89 1.512-3.348t2.718-2.322q1.674-.864 4.086-.864 2.196 0 3.69.792 1.494.792 2.43 2.124.936 1.332 1.35 3.078.414 1.746.414 3.618 0 1.044-.522 1.602t-1.53.558H93.74q.216 1.188.648 2.016.432.828 1.026 1.35.594.522 1.314.756.72.234 1.512.234 1.296 0 2.358-.414t1.53-.81q.36-.288.666-.414.306-.126.666-.126Zm-9.684-6.228h7.488q.216 0 .342-.144.126-.144.126-.576 0-.576-.234-1.116-.234-.54-.72-.972-.486-.432-1.17-.684-.684-.252-1.584-.252t-1.602.27q-.702.27-1.242.756t-.882 1.17q-.342.684-.522 1.548Zm56.268 10.116q0 1.152-.558 1.71t-1.71.558q-1.116 0-1.674-.558-.558-.558-.558-1.71V17.996q0-.216-.162-.216t-.198.216l-1.908 8.496q-.18.936-.792 1.404-.612.468-1.584.468-.972 0-1.584-.468-.612-.468-.792-1.404l-1.908-8.496q-.036-.216-.198-.216t-.162.216v17.316q0 1.152-.558 1.71t-1.674.558q-1.152 0-1.71-.558t-.558-1.71V14.828q0-2.124.9-3.186.9-1.062 2.844-1.062 1.512 0 2.322.648t1.062 2.016l1.656 7.956q.072.54.36.54t.396-.54l1.62-7.956q.252-1.368 1.17-2.016.918-.648 2.358-.648 1.836 0 2.718 1.026.882 1.026.882 3.078v20.628ZM162.5 37.58q-2.196 0-3.798-.81-1.602-.81-2.682-2.214-1.08-1.404-1.602-3.276-.522-1.872-.522-3.96 0-2.124.522-3.978t1.584-3.258q1.062-1.404 2.682-2.214 1.62-.81 3.816-.81 2.196 0 3.816.81 1.62.81 2.682 2.196 1.062 1.386 1.584 3.258t.522 3.996q0 2.088-.522 3.96-.522 1.872-1.584 3.276-1.062 1.404-2.682 2.214-1.62.81-3.816.81Zm0-4.14q.972 0 1.71-.468t1.206-1.314q.468-.846.702-1.962.234-1.116.234-2.376 0-1.296-.216-2.412-.216-1.116-.702-1.944-.486-.828-1.206-1.296-.72-.468-1.728-.468t-1.728.468q-.72.468-1.206 1.314-.486.846-.702 1.962-.216 1.116-.216 2.376 0 1.26.234 2.376.234 1.116.702 1.962.468.846 1.206 1.314.738.468 1.71.468Zm18.144-7.56v9.324q0 1.188-.594 1.782-.594.594-1.782.594-1.224 0-1.8-.594-.576-.594-.576-1.782V19.4q0-1.188.558-1.764.558-.576 1.674-.576 1.08 0 1.728.576.648.576.648 1.764v1.548q.576-1.836 1.8-2.862 1.224-1.026 3.024-1.026 1.656 0 2.934.558 1.278.558 2.196 1.512.918.954 1.386 2.286.468 1.332.468 2.88v10.908q0 1.188-.576 1.782-.576.594-1.8.594-1.188 0-1.782-.594-.594-.594-.594-1.782v-9.9q0-.684-.18-1.368t-.54-1.224q-.36-.54-.936-.864-.576-.324-1.404-.324-.864 0-1.584.36-.72.36-1.224.99t-.774 1.404q-.27.774-.27 1.602Zm25.056 11.7q-2.196 0-3.798-.81-1.602-.81-2.682-2.214-1.08-1.404-1.602-3.276-.522-1.872-.522-3.96 0-2.124.522-3.978t1.584-3.258q1.062-1.404 2.682-2.214 1.62-.81 3.816-.81 2.196 0 3.816.81 1.62.81 2.682 2.196 1.062 1.386 1.584 3.258t.522 3.996q0 2.088-.522 3.96-.522 1.872-1.584 3.276-1.062 1.404-2.682 2.214-1.62.81-3.816.81Zm0-4.14q.972 0 1.71-.468t1.206-1.314q.468-.846.702-1.962.234-1.116.234-2.376 0-1.296-.216-2.412-.216-1.116-.702-1.944-.486-.828-1.206-1.296-.72-.468-1.728-.468t-1.728.468q-.72.468-1.206 1.314-.486.846-.702 1.962-.216 1.116-.216 2.376 0 1.26.234 2.376.234 1.116.702 1.962.468.846 1.206 1.314.738.468 1.71.468Z" />
</svg>